/* XPM */
static char *hello[]={
"32 32 5 1",
". c None",
"# c #0058c0",
"b c #800000",
"a c #a8dcff",
"c c #ff0000",
"............########............",
".........###aaaaaaaa###.........",
".......##aaaabcbbaaaaaa##.......",
"......#aaaaaaaaaaaaaaaaaa#......",
".....#aaaaaaaaacbaaaaaaaaa#.....",
"....#aaaaaaaaaaaaaaaaaaaaaa#....",
"...#abbaaaaaaaaaaaaaaabbbaba#...",
"..#aaaaaaaaaaaaaaaaaaaaaaaaaa#..",
"..#bcbbbbbaaaaaaaaaaacbbbbbba#..",
".#aaaaaaaaaaaaaaaaaaaaaaaaaaaa#.",
".#abcbbbaaaaaaaaaaaaacbaaaacba#.",
".#aaaaaaaaaaaaaaaaaaaaaaaaaaaa#.",
"#abcbbaaaaaaaaaaaaaaaabbbbbbbba#",
"#aaaaaaaaaaaaaaaaaaaaaaaaaaaaaa#",
"#acbaaaaaaaaaaaaaaaabcbbbbbacba#",
"#aaaaaaaaaaaaaaaaaaaaaaaaaaaaaa#",
"#aabaaaaaaaaaaaaaaabcbbbbbbbbba#",
"#aaaaaaaaaaaaaaaaaaaaaaaaaaaaaa#",
"#aaabcbbaaaaaaaaaaaaabcbbbbbaaa#",
"#aaaaaaaaaaaaaaaaaaaaaaaaaaaaaa#",
".#aaaabcbbbbaaaaaaaaaabcbbbaaa#.",
".#aaaaaaaaaaaaaaaaaaaaaaaaaaaa#.",
".#aaaaabcbbbbaaaaaaaaabcbbbaaa#.",
"..#aaaaaaaaaaaaaaaaaaaaaaaaaa#..",
"..#aaaaabcbbaaaaaaaaaaacbbaaa#..",
"...#aaaaaaaaaaaaaaaaaaaaaaaa#...",
"....#aaaacbaaaaaaaaaaaaacba#....",
".....#aaaaaaaaaaaaaaaaaaaa#.....",
"......#aaacaaaaaaaaaaaaaa#......",
".......##aaaaaaaaaaaaaa##.......",
".........###aaaaaaaa###.........",
"............########............"};
