P2
7 7
255

1 3 8 7 8 8 2
2 1 9 8 8 9 1
1 0 4 1 1 2 5 
1 1 9 3 4 2 6 
3 2 7 9 9 1 1
1 0 8 4 9 6 7
0 2 9 3 8 5 9
