P3
# CREATOR: GIMP PNM Filter Version 1.1

5 5
255
201 99 93 200 92 94 208 126 122 208 109 102 162 81 90 189 85 86 198 98 99 
197 138 143 203 149 145 167 94 105 188 87 90 142 64 93 186 107 117 159 84 102 
201 133 123 166 80 95 126 65 103 189 86 96 161 85 98 210 154 131 154 85 98 
113 50 91 201 93 94 204 138 131 173 94 95 
